<svg width="36" height="35" viewBox="0 0 36 35" fill="none" xmlns="http://www.w3.org/2000/svg">
<g id="alternate_email">
<mask id="mask0_203_547" style="mask-type:alpha" maskUnits="userSpaceOnUse" x="0" y="0" width="36" height="35">
<rect id="Bounding box" y="0.986572" width="35.8033" height="33.6066" fill="#D9D9D9"/>
</mask>
<g mask="url(#mask0_203_547)">
<path id="alternate_email_2" d="M17.918 33.2455C15.8544 33.2455 13.915 32.8877 12.1 32.1722C10.285 31.4566 8.70615 30.4856 7.36352 29.2589C6.0209 28.0322 4.95799 26.5898 4.1748 24.9315C3.3916 23.2733 3 21.5015 3 19.616C3 17.7306 3.3916 15.9588 4.1748 14.3006C4.95799 12.6423 6.0209 11.1998 7.36352 9.97319C8.70615 8.74654 10.285 7.77544 12.1 7.05989C13.915 6.34435 15.8544 5.98657 17.918 5.98657C19.9817 5.98657 21.921 6.34435 23.7361 7.05989C25.5511 7.77544 27.1299 8.74654 28.4725 9.97319C29.8152 11.1998 30.8781 12.6423 31.6613 14.3006C32.4445 15.9588 32.8361 17.7306 32.8361 19.616V21.5923C32.8361 22.9326 32.3326 24.074 31.3256 25.0167C30.3186 25.9594 29.0817 26.4308 27.6148 26.4308C26.7445 26.4308 25.924 26.2604 25.1533 25.9197C24.3825 25.5789 23.7361 25.0906 23.2139 24.4545C22.4929 25.1133 21.6786 25.6073 20.7711 25.9367C19.8636 26.2661 18.9126 26.4308 17.918 26.4308C15.8544 26.4308 14.0953 25.7663 12.6408 24.4375C11.1863 23.1086 10.459 21.5015 10.459 19.616C10.459 17.7306 11.1863 16.1235 12.6408 14.7946C14.0953 13.4657 15.8544 12.8013 17.918 12.8013C19.9817 12.8013 21.7408 13.4657 23.1953 14.7946C24.6498 16.1235 25.377 17.7306 25.377 19.616V21.5923C25.377 22.1829 25.5884 22.6827 26.0111 23.0916C26.4337 23.5004 26.9683 23.7049 27.6148 23.7049C28.2612 23.7049 28.7958 23.5004 29.2184 23.0916C29.6411 22.6827 29.8525 22.1829 29.8525 21.5923V19.616C29.8525 16.5721 28.6963 13.9939 26.384 11.8813C24.0717 9.76875 21.2497 8.71247 17.918 8.71247C14.5863 8.71247 11.7643 9.76875 9.45205 11.8813C7.13975 13.9939 5.98361 16.5721 5.98361 19.616C5.98361 22.66 7.13975 25.2382 9.45205 27.3508C11.7643 29.4633 14.5863 30.5196 17.918 30.5196H25.377V33.2455H17.918ZM17.918 23.7049C19.1612 23.7049 20.2179 23.3074 21.0881 22.5123C21.9583 21.7173 22.3934 20.7518 22.3934 19.616C22.3934 18.4803 21.9583 17.5148 21.0881 16.7198C20.2179 15.9247 19.1612 15.5272 17.918 15.5272C16.6749 15.5272 15.6182 15.9247 14.748 16.7198C13.8777 17.5148 13.4426 18.4803 13.4426 19.616C13.4426 20.7518 13.8777 21.7173 14.748 22.5123C15.6182 23.3074 16.6749 23.7049 17.918 23.7049Z" fill="#1C1B1F"/>
</g>
</g>
</svg>
