<svg width="34" height="35" viewBox="0 0 34 35" fill="none" xmlns="http://www.w3.org/2000/svg">
<g id="captive_portal">
<mask id="mask0_203_572" style="mask-type:alpha" maskUnits="userSpaceOnUse" x="0" y="0" width="34" height="35">
<rect id="Bounding box" y="0.650391" width="33.0492" height="34.2787" fill="#D9D9D9"/>
</mask>
<g mask="url(#mask0_203_572)">
<path id="captive_portal_2" d="M28.7181 30.9758L24.6558 26.8747V29.9679H21.9017V22.1133H29.6821V24.8937H26.5837L30.646 28.9948L28.7181 30.9758ZM16.3935 30.4545C14.4886 30.4545 12.6985 30.0896 11.023 29.3597C9.34764 28.6299 7.89026 27.6393 6.65092 26.3882C5.41157 25.137 4.43042 23.6657 3.70747 21.9743C2.98452 20.2828 2.62305 18.4756 2.62305 16.5525C2.62305 14.6293 2.98452 12.8221 3.70747 11.1306C4.43042 9.43923 5.41157 7.96793 6.65092 6.71674C7.89026 5.46556 9.34764 4.47504 11.023 3.74518C12.6985 3.01532 14.4886 2.65039 16.3935 2.65039C18.2985 2.65039 20.0886 3.01532 21.764 3.74518C23.4394 4.47504 24.8968 5.46556 26.1362 6.71674C27.3755 7.96793 28.3567 9.43923 29.0796 11.1306C29.8026 12.8221 30.164 14.6293 30.164 16.5525C30.164 17.0159 30.1411 17.4793 30.0952 17.9427C30.0493 18.4061 29.9804 18.8695 29.8886 19.3329H27.0657C27.1804 18.8695 27.2665 18.4061 27.3239 17.9427C27.3812 17.4793 27.4099 17.0159 27.4099 16.5525C27.4099 16.0891 27.3812 15.6256 27.3239 15.1622C27.2665 14.6988 27.1804 14.2354 27.0657 13.772H22.3837C22.4526 14.2354 22.5042 14.6988 22.5386 15.1622C22.573 15.6256 22.5903 16.0891 22.5903 16.5525C22.5903 17.0159 22.573 17.4793 22.5386 17.9427C22.5042 18.4061 22.4526 18.8695 22.3837 19.3329H19.6296C19.6985 18.8695 19.7501 18.4061 19.7845 17.9427C19.8189 17.4793 19.8362 17.0159 19.8362 16.5525C19.8362 16.0891 19.8189 15.6256 19.7845 15.1622C19.7501 14.6988 19.6985 14.2354 19.6296 13.772H13.1575C13.0886 14.2354 13.037 14.6988 13.0026 15.1622C12.9681 15.6256 12.9509 16.0891 12.9509 16.5525C12.9509 17.0159 12.9681 17.4793 13.0026 17.9427C13.037 18.4061 13.0886 18.8695 13.1575 19.3329H17.7706V22.1133H13.7771C14.0526 23.1096 14.4083 24.0654 14.8444 24.9806C15.2804 25.8958 15.7968 26.7705 16.3935 27.6046C16.8526 27.6046 17.3116 27.5756 17.7706 27.5177C18.2296 27.4598 18.6886 27.4076 19.1476 27.3613V30.2112C18.6886 30.2576 18.2296 30.3097 17.7706 30.3676C17.3116 30.4256 16.8526 30.4545 16.3935 30.4545ZM5.72141 19.3329H10.4034C10.3345 18.8695 10.2829 18.4061 10.2485 17.9427C10.214 17.4793 10.1968 17.0159 10.1968 16.5525C10.1968 16.0891 10.214 15.6256 10.2485 15.1622C10.2829 14.6988 10.3345 14.2354 10.4034 13.772H5.72141C5.60665 14.2354 5.52059 14.6988 5.46321 15.1622C5.40583 15.6256 5.37715 16.0891 5.37715 16.5525C5.37715 17.0159 5.40583 17.4793 5.46321 17.9427C5.52059 18.4061 5.60665 18.8695 5.72141 19.3329ZM6.8919 10.9916H10.9542C11.1608 10.1343 11.4189 9.29442 11.7288 8.47188C12.0386 7.64934 12.4001 6.84418 12.8132 6.0564C11.5509 6.47346 10.4148 7.10484 9.40501 7.95055C8.39518 8.79626 7.55747 9.80995 6.8919 10.9916ZM12.8132 27.0485C12.4001 26.2607 12.0386 25.4556 11.7288 24.633C11.4189 23.8105 11.1608 22.9706 10.9542 22.1133H6.8919C7.55747 23.295 8.39518 24.3086 9.40501 25.1544C10.4148 26.0001 11.5509 26.6314 12.8132 27.0485ZM13.7771 10.9916H19.0099C18.7345 9.99531 18.3788 9.03955 17.9427 8.12433C17.5067 7.20911 16.9903 6.33444 16.3935 5.50031C15.7968 6.33444 15.2804 7.20911 14.8444 8.12433C14.4083 9.03955 14.0526 9.99531 13.7771 10.9916ZM21.8329 10.9916H25.8952C25.2296 9.80995 24.3919 8.79626 23.3821 7.95055C22.3722 7.10484 21.2362 6.47346 19.9739 6.0564C20.387 6.84418 20.7485 7.64934 21.0583 8.47188C21.3681 9.29442 21.6263 10.1343 21.8329 10.9916Z" fill="#1C1B1F"/>
</g>
</g>
</svg>
